<mxfile host="app.diagrams.net" modified="2023-08-31T13:08:37.338Z" agent="Mozilla/5.0 (Windows NT 10.0; Win64; x64) AppleWebKit/537.36 (KHTML, like Gecko) Chrome/116.0.0.0 Safari/537.36" version="21.7.1" etag="bSrSqGD4hRMZx_mg_I8B" type="github">
  <diagram name="PÃ¡gina-1" id="_RUF-M6HG5x_qtiw6F-5">
    <mxGraphModel>
      <root>
        <mxCell id="0" />
        <mxCell id="1" parent="0" />
      </root>
    </mxGraphModel>
  </diagram>
</mxfile>
